HIERARCHY
ROOT root
{
	OFFSET	0	13.1	24.9
	CHANNELS 6  Xposition Yposition Zposition Xrotation Yrotation Zrotation
	JOINT spine_1
	{
		OFFSET	0	9.99999	0
		CHANNELS 3  Xrotation Yrotation Zrotation
		JOINT spine_2
		{
			OFFSET	0	112	-10
			CHANNELS 3  Xrotation Yrotation Zrotation
			JOINT spine_3
			{
				OFFSET	0	206.5	19.3
				CHANNELS 3  Xrotation Yrotation Zrotation
				JOINT spine_4
				{
					OFFSET	0	110.4	14.6
					CHANNELS 3  Xrotation Yrotation Zrotation
					JOINT neck_1
					{
						OFFSET	0	71.8	-50.3
						CHANNELS 3  Xrotation Yrotation Zrotation
						JOINT neck_2
						{
							OFFSET	0	86.2	-25.8
							CHANNELS 3  Xrotation Yrotation Zrotation
							JOINT head_ee
							{
								OFFSET	0	179.8	-8.7
								CHANNELS 3  Xrotation Yrotation Zrotation
								End Site
								{
									OFFSET	1	0	0
								}
							}
						}
					}
					JOINT left_clavicle
					{
						OFFSET	-43.2	22.4	-70.8
						CHANNELS 3  Xrotation Yrotation Zrotation
						JOINT left_shoulder
						{
							OFFSET	-93.9	-5.79999	48.7
							CHANNELS 3  Xrotation Yrotation Zrotation
							JOINT left_elbow
							{
								OFFSET	-291.4	-30.8	15.2
								CHANNELS 3  Xrotation Yrotation Zrotation
								JOINT left_lowarm_twist
								{
									OFFSET	-110.7	-3.89999	13.6
									CHANNELS 3  Xrotation Yrotation Zrotation
									JOINT left_hand
									{
										OFFSET	-110.7	-3.89999	13.6
										CHANNELS 3  Xrotation Yrotation Zrotation
										JOINT left_ee
										{
											OFFSET	-80.8	-5.10001	12.1
											CHANNELS 3  Xrotation Yrotation Zrotation
											End Site
											{
												OFFSET	1	0	0
											}
										}
									}
								}
							}
						}
					}
					JOINT right_clavicle
					{
						OFFSET	43.2	22.4	-70.8
						CHANNELS 3  Xrotation Yrotation Zrotation
						JOINT right_shoulder
						{
							OFFSET	93.9	-5.79999	48.7
							CHANNELS 3  Xrotation Yrotation Zrotation
							JOINT right_elbow
							{
								OFFSET	291.4	-30.8	15.2
								CHANNELS 3  Xrotation Yrotation Zrotation
								JOINT right_lowarm_twist
								{
									OFFSET	110.7	-3.89999	13.6
									CHANNELS 3  Xrotation Yrotation Zrotation
									JOINT right_hand
									{
										OFFSET	110.7	-3.89999	13.6
										CHANNELS 3  Xrotation Yrotation Zrotation
										JOINT right_ee
										{
											OFFSET	80.8	-5.10001	12.1
											CHANNELS 3  Xrotation Yrotation Zrotation
											End Site
											{
												OFFSET	1	0	0
											}
										}
									}
								}
							}
						}
					}
				}
			}
		}
	}
	JOINT left_hip
	{
		OFFSET	-82.8	-127.5	0.300001
		CHANNELS 3  Xrotation Yrotation Zrotation
		JOINT left_knee
		{
			OFFSET	-28.2	-396.7	2.2
			CHANNELS 3  Xrotation Yrotation Zrotation
			JOINT left_ankle
			{
				OFFSET	-11.7	-411.3	35.4
				CHANNELS 3  Xrotation Yrotation Zrotation
				JOINT left_toes
				{
					OFFSET	0	-60	-88.6
					CHANNELS 3  Xrotation Yrotation Zrotation
					JOINT left_foot_ee
					{
						OFFSET	-22.5	-16.5	-42.2
						CHANNELS 3  Xrotation Yrotation Zrotation
						End Site
						{
							OFFSET	1	0	0
						}
					}
				}
			}
		}
	}
	JOINT right_hip
	{
		OFFSET	82.8	-127.5	0.300001
		CHANNELS 3  Xrotation Yrotation Zrotation
		JOINT right_knee
		{
			OFFSET	28.2	-396.7	2.2
			CHANNELS 3  Xrotation Yrotation Zrotation
			JOINT right_ankle
			{
				OFFSET	11.7	-411.3	35.4
				CHANNELS 3  Xrotation Yrotation Zrotation
				JOINT right_toes
				{
					OFFSET	0	-60	-88.6
					CHANNELS 3  Xrotation Yrotation Zrotation
					JOINT right_foot_ee
					{
						OFFSET	22.5	-16.5	-42.2
						CHANNELS 3  Xrotation Yrotation Zrotation
						End Site
						{
							OFFSET	1	0	0
						}
					}
				}
			}
		}
	}
}
MOTION
Frames: 5
Frame Time: 0.02
3610.46 752.576 -1582.77 1.45562 62.3924 0.955087 -2.53708 0.757407 0.796707 -2.537 0.705177 0.843286 -2.52599 0.468905 0.994244 -2.52684 0.620036 0.907721 7.88418 20.0664 -2.65682 10.2479 36.0577 -3.50824 -0.0 0.0 -0.0 2.84822 23.8448 6.63237 -35.7004 -4.28425 65.6371 1.93497 -43.7822 0.777566 -48.7311 -3.92383 4.6149 0.367488 11.9633 7.2743 -0.0 0.0 -0.0 11.736 25.0374 -22.884 2.56465 45.7116 -52.2393 1.57821 38.0155 -0.543691 -2.14994 0.0806957 -0.262662 -4.84782 6.04109 37.9649 0.0 0.0 0.0 19.1744 17.1478 -17.0757 -1.06782 0.0424928 0.158359 2.28365 -15.7778 -0.363997 1.04254 -0.0 -0.0 -0.0 0.0 -0.0 -4.92933 29.9462 -6.69173 -3.72244 -0.135266 -0.555165 25.6579 -18.1147 3.47634 -11.4955 0.0 0.0 0.0 0.0 0.0 
3597.4 747.312 -1582.94 2.6787 62.004 -0.414728 -2.51582 1.13503 0.786755 -2.51613 1.08267 0.857387 -2.49941 0.831135 1.10295 -2.49972 0.994886 0.957854 8.01371 20.1572 -2.68931 10.4205 36.2029 -3.59207 -0.0 0.0 -0.0 2.71247 24.7091 6.47103 -36.5249 -4.21412 65.1094 1.81121 -41.8951 0.693407 -48.6173 -3.91063 4.60864 0.608238 11.1872 8.51929 -0.0 0.0 -0.0 11.6562 24.9567 -22.7107 2.32537 46.9237 -50.6883 1.66567 39.5237 -0.598464 -1.92002 0.0715955 -0.234717 -4.80394 6.30192 37.7335 0.0 0.0 0.0 19.5357 16.9721 -17.3544 0.257659 -0.0106957 -0.0380932 -0.0996756 -14.6689 0.0158605 0.176029 -0.0 -0.0 -0.0 0.0 -0.0 -5.69543 29.8146 -6.45414 -5.45079 -0.185738 -0.815601 26.1031 -17.0688 3.51635 -11.9373 0.0 0.0 0.0 0.0 0.0 
3587.42 739.568 -1584.4 1.99751 63.1003 0.427654 -2.37404 1.0812 0.826712 -2.37424 1.0264 0.893836 -2.35763 0.770263 1.12211 -2.35816 0.937804 0.986392 8.19558 20.1623 -2.90008 10.6669 36.3437 -3.90866 -0.0 0.0 -0.0 2.5791 24.8766 6.29733 -36.9204 -3.95413 64.7223 1.63827 -39.0581 0.581113 -48.3925 -3.8846 4.5962 0.936869 10.0825 10.2298 -0.0 0.0 -0.0 11.5786 25.0837 -22.5209 2.5203 48.7838 -48.6826 1.79622 41.6586 -0.683417 -1.50772 0.0555577 -0.184516 -4.72286 6.56993 37.1911 0.0 0.0 0.0 19.98 17.2191 -17.9407 1.87903 -0.0819255 -0.276683 -3.60022 -13.0818 0.571251 -0.579306 0.0 0.0 -0.0 0.0 -0.0 -6.83944 29.6447 -6.15814 -7.8479 -0.242682 -1.17903 27.1323 -15.5342 3.61913 -12.3903 0.0 0.0 0.0 0.0 0.0 
3573.22 741.053 -1583.86 2.15338 65.1787 0.591269 -2.17267 0.741412 0.869778 -2.17251 0.684566 0.91519 -2.16088 0.437511 1.05583 -2.16194 0.598761 0.97349 9.48919 19.9478 -4.21329 12.3401 36.7697 -5.92454 -0.0 0.0 -0.0 2.44217 24.7034 6.10834 -36.3552 -4.23166 64.803 1.41437 -35.0144 0.446164 -48.0747 -3.84789 4.57844 1.37194 8.93991 12.6628 -0.0 0.0 -0.0 11.4688 25.2657 -22.2519 2.58551 50.6119 -48.9588 1.81772 41.9973 -0.697759 -0.814171 0.0293976 -0.099818 -4.60873 6.64269 36.2716 0.0 0.0 0.0 19.9338 17.2804 -17.3058 4.19533 -0.195358 -0.613905 -7.80493 -10.66 1.22907 -1.38126 0.0 0.0 -0.0 0.0 -0.0 -7.28881 29.3567 -6.30428 -9.02749 -0.265107 -1.35865 29.1245 -13.2816 3.82248 -12.8079 0.0 0.0 0.0 0.0 0.0 
3557.52 741.247 -1586.22 5.03694 66.2884 -2.63338 -2.09754 0.256889 0.984015 -2.09702 0.193756 0.998366 -2.09298 -0.0575213 1.01536 -2.0944 0.10355 1.01171 11.3441 19.6007 -6.08529 14.7992 37.3288 -8.88881 -0.0 0.0 -0.0 2.54701 24.465 6.24115 -35.178 -4.69125 64.9871 1.13033 -29.245 0.294913 -47.6178 -3.79527 4.55255 1.98219 7.33128 16.167 -0.0 0.0 -0.0 11.2529 25.4663 -21.7408 1.87168 52.9506 -49.2661 1.84092 42.3587 -0.713332 0.176154 -0.00617319 0.0216502 -4.44468 6.73642 34.9626 0.0 0.0 0.0 19.977 17.2376 -16.1899 7.9444 -0.407636 -1.1494 -13.8304 -7.2768 2.1545 -2.51094 0.0 0.0 -0.0 0.0 -0.0 -7.85047 28.9459 -6.59507 -10.4329 -0.286991 -1.57318 31.939 -10.0508 4.10236 -13.4218 0.0 0.0 0.0 0.0 0.0 
